<svg width="734pt" height="467pt" viewBox="0 0 734 467" version="1.1" xmlns="http://www.w3.org/2000/svg">
<g id="#000000ff">
<path fill="#000000" opacity="1.00" d=" M 457.45 1.85 C 458.11 1.65 459.43 1.26 460.09 1.06 C 462.31 6.09 462.55 11.67 464.36 16.81 C 464.78 18.40 466.53 18.81 467.83 19.44 C 481.39 24.74 496.90 25.52 510.74 20.78 C 513.71 19.90 517.08 17.26 519.68 20.22 C 526.44 19.57 533.50 21.74 538.23 26.73 C 545.92 34.23 546.90 45.80 546.67 55.95 C 545.40 80.34 537.46 103.96 526.31 125.54 C 518.01 141.58 508.33 157.06 496.21 170.51 C 494.33 172.81 491.15 174.67 491.32 178.02 C 490.51 195.35 490.17 212.75 491.45 230.07 C 494.94 220.49 497.18 210.49 500.92 200.99 C 507.22 183.74 514.18 166.24 526.18 152.07 C 529.97 148.01 535.20 144.22 541.08 145.26 C 546.03 146.21 550.55 149.76 552.59 154.38 C 554.30 160.29 552.52 166.59 549.92 171.97 C 544.28 183.33 534.52 192.02 524.12 198.99 C 534.08 205.99 537.71 218.47 538.50 230.05 C 538.82 235.21 539.05 241.16 543.06 244.96 C 545.58 247.42 549.53 246.81 552.42 245.41 C 557.32 242.90 561.00 238.55 563.95 233.99 C 567.72 228.06 569.28 221.14 571.33 214.51 C 572.78 209.43 574.69 204.35 574.61 198.98 C 574.48 192.63 575.24 186.32 575.41 179.98 C 575.72 175.49 577.28 170.82 580.53 167.60 C 585.36 164.32 591.35 167.18 595.69 169.98 C 595.56 175.65 595.55 181.33 596.04 186.99 C 596.59 203.33 595.38 219.76 597.23 236.04 C 597.74 240.52 598.73 245.70 602.73 248.41 C 605.43 249.69 608.15 247.67 610.35 246.26 C 618.58 239.83 622.73 229.88 626.40 220.41 C 628.85 214.59 627.54 208.15 627.84 202.03 C 627.54 192.46 628.37 182.91 628.54 173.34 C 633.11 172.53 637.76 173.24 642.18 174.49 C 644.71 175.17 647.89 176.87 647.62 179.95 C 648.63 199.25 648.38 218.60 648.33 237.92 C 668.19 221.25 683.72 198.98 690.93 173.95 C 691.60 174.10 692.95 174.41 693.62 174.56 C 694.18 178.68 693.92 182.83 693.87 186.96 C 693.90 264.00 693.86 341.04 693.89 418.08 C 698.58 419.00 702.57 421.66 705.85 425.05 C 709.88 422.49 713.78 419.66 718.13 417.65 C 722.61 419.64 727.27 421.78 730.70 425.39 C 725.89 425.58 722.39 421.62 718.14 419.95 C 714.43 422.28 710.70 424.59 706.93 426.81 C 709.22 430.35 710.57 434.38 711.22 438.53 C 714.76 436.14 718.40 433.90 722.01 431.62 C 725.98 434.91 730.17 437.94 734.00 441.40 L 734.00 442.07 C 728.90 441.97 725.87 436.95 721.96 434.31 C 718.43 436.36 715.00 438.59 711.53 440.73 C 711.36 444.37 710.87 447.99 710.12 451.55 C 714.40 450.45 718.67 449.33 722.96 448.24 C 726.11 450.88 730.81 452.40 732.73 456.06 C 732.44 456.20 731.86 456.50 731.57 456.64 C 728.29 454.87 725.37 452.51 722.24 450.51 C 718.06 452.01 713.53 452.42 709.49 454.25 C 706.31 458.73 703.16 463.82 697.61 465.64 C 690.05 468.95 681.97 463.70 677.86 457.43 C 673.87 457.37 669.88 457.38 665.89 457.40 C 664.44 460.65 663.04 463.94 661.19 467.00 L 659.98 467.00 C 660.24 462.75 662.68 459.15 664.41 455.40 C 668.47 455.34 672.54 455.33 676.62 455.43 C 675.22 451.92 674.63 448.18 673.49 444.61 C 669.00 443.38 664.35 442.88 659.83 441.76 C 657.51 443.76 655.37 445.98 652.87 447.76 L 651.77 447.34 C 652.71 443.84 656.68 442.17 659.00 439.54 C 663.94 440.29 668.85 441.23 673.70 442.43 C 674.00 437.64 674.91 432.86 677.28 428.64 C 672.73 427.28 668.18 425.91 663.68 424.40 C 660.53 426.96 657.98 430.46 654.00 431.79 C 655.71 427.50 659.92 425.16 662.99 421.96 C 668.07 423.31 672.91 425.51 678.09 426.45 C 681.69 423.08 685.11 419.07 690.38 418.49 C 690.23 342.17 690.57 265.83 690.21 189.50 C 686.77 196.25 683.83 203.28 679.65 209.62 C 671.51 221.85 661.23 232.54 650.29 242.29 C 647.83 244.12 648.69 247.45 648.42 250.09 C 648.53 258.09 648.13 266.07 647.67 274.04 C 647.88 282.74 646.57 291.36 646.58 300.05 C 645.00 320.34 644.16 341.04 637.56 360.49 C 634.39 369.18 630.52 378.17 623.20 384.20 C 616.66 389.29 608.39 392.32 600.05 391.68 C 591.34 391.93 582.87 387.19 578.18 379.93 C 573.12 372.35 572.17 362.87 572.34 353.99 C 573.03 336.37 578.59 318.97 588.22 304.20 C 599.03 287.21 612.63 272.17 626.85 257.97 C 626.56 249.29 627.50 240.64 627.59 231.96 C 623.78 238.73 620.08 245.89 614.03 250.97 C 605.16 258.00 590.92 255.62 584.16 246.76 C 578.36 240.00 576.61 231.07 575.09 222.56 C 572.18 233.60 566.34 244.19 557.18 251.22 C 549.78 257.58 537.83 255.05 531.39 248.53 C 524.79 239.73 523.64 228.33 522.02 217.78 C 521.00 213.01 520.65 207.59 517.09 203.90 C 515.54 202.19 513.17 201.82 511.10 201.11 C 505.58 217.09 500.16 233.20 497.50 249.95 C 496.82 254.91 494.66 259.88 495.83 264.93 C 496.70 269.75 499.22 274.15 499.69 279.04 C 500.09 284.11 494.93 288.46 489.99 287.40 C 484.57 286.94 482.69 281.16 481.11 276.85 C 473.29 258.62 471.62 238.58 470.04 219.03 C 468.99 207.59 469.48 196.09 469.27 184.62 C 465.77 188.39 463.07 192.81 459.53 196.55 C 453.75 203.04 446.40 208.49 437.87 210.61 C 436.39 211.17 434.33 211.13 433.70 212.89 C 429.74 220.44 425.66 228.48 418.49 233.51 C 412.03 237.45 403.65 235.49 397.82 231.30 C 388.09 224.79 383.80 213.03 381.76 202.00 C 372.79 211.70 361.14 219.39 347.90 221.47 C 344.47 228.63 340.68 235.65 336.12 242.16 C 331.38 248.70 324.46 254.70 316.03 255.10 C 304.85 255.24 294.35 248.95 287.79 240.13 C 277.91 227.07 274.03 210.34 273.81 194.19 C 267.27 201.55 259.69 208.43 250.27 211.81 C 248.04 223.71 245.97 236.08 239.36 246.47 C 235.82 251.44 231.93 256.43 226.68 259.70 C 221.02 263.18 213.61 264.36 207.43 261.57 C 202.32 259.06 198.21 253.85 198.12 248.00 C 197.56 240.48 201.22 233.39 205.63 227.56 C 212.46 219.57 222.63 215.69 232.29 212.29 C 232.41 209.18 232.55 206.08 232.83 202.99 C 233.99 191.31 233.56 179.44 231.02 167.97 C 230.49 166.57 229.83 164.39 227.94 164.55 C 219.69 168.94 214.41 177.11 210.18 185.16 C 205.83 192.79 202.50 200.93 198.96 208.95 C 196.85 213.33 197.87 218.30 197.50 222.97 C 196.20 243.21 195.59 263.55 196.76 283.82 C 197.48 291.81 198.33 299.95 201.31 307.47 C 202.09 309.68 204.11 311.02 205.83 312.46 C 205.48 314.29 205.87 316.81 203.88 317.80 C 199.80 319.93 194.69 320.23 190.42 318.51 C 184.58 315.48 181.27 309.25 179.53 303.16 C 175.35 288.79 176.87 273.68 175.82 258.95 C 176.70 248.14 175.96 237.26 177.23 226.47 C 177.22 217.32 178.52 208.24 178.46 199.09 C 178.61 189.76 179.20 180.26 177.06 171.10 C 176.13 167.38 174.60 162.67 169.96 162.59 C 171.02 161.28 171.84 159.21 173.87 159.37 C 179.96 158.97 186.32 159.57 191.92 162.15 C 197.35 164.84 200.65 171.03 200.13 177.03 C 199.57 183.77 199.09 190.53 198.47 197.27 C 204.24 186.30 208.90 174.54 216.92 164.93 C 220.31 160.75 225.52 157.85 231.02 158.27 C 237.77 158.05 242.86 163.67 245.95 169.07 C 251.95 180.65 250.56 194.08 250.57 206.66 C 259.60 201.36 268.79 195.17 273.75 185.63 C 275.10 181.57 275.06 177.08 277.12 173.26 C 279.35 170.36 283.32 169.18 285.06 165.82 C 290.01 156.19 289.33 144.79 294.04 135.07 C 298.59 124.50 309.20 116.06 321.04 116.29 C 332.77 115.65 343.82 122.10 351.22 130.84 C 357.25 138.19 359.52 147.75 361.05 156.93 C 363.73 177.03 358.39 197.19 350.76 215.66 C 363.00 212.99 373.01 204.22 380.66 194.71 C 381.22 188.64 380.53 182.08 383.59 176.56 C 385.57 174.19 388.77 172.86 389.80 169.75 C 392.35 163.43 392.38 156.39 395.12 150.12 C 398.41 141.36 407.45 134.70 417.00 135.59 C 424.95 135.87 431.53 140.77 437.09 145.99 C 431.78 135.13 424.59 124.95 414.87 117.62 C 405.49 117.61 396.10 118.94 386.73 119.58 C 386.51 118.84 386.08 117.35 385.86 116.61 C 395.08 114.98 404.60 115.46 413.79 113.83 C 427.09 97.95 429.00 74.00 420.37 55.44 C 415.56 49.91 409.40 45.72 404.22 40.55 C 402.93 39.34 403.15 38.22 404.88 37.21 C 410.18 41.51 415.14 46.23 420.23 50.79 C 421.23 51.66 422.38 52.71 423.85 52.20 C 433.66 50.55 443.24 46.41 450.40 39.39 C 455.57 33.90 459.29 27.02 461.28 19.77 C 460.42 13.73 458.11 7.95 457.45 1.85 M 465.35 22.24 C 467.16 28.24 468.31 34.41 469.78 40.49 C 470.06 43.76 473.82 44.41 476.24 45.66 C 481.57 47.25 487.59 48.21 492.93 46.17 C 494.51 45.75 495.03 44.06 495.86 42.85 C 499.74 35.79 504.44 28.95 511.03 24.15 C 496.21 29.30 479.77 28.13 465.35 22.24 M 462.85 26.11 C 461.24 29.44 459.77 32.86 457.73 35.95 C 450.39 46.60 438.31 53.22 425.69 55.31 C 429.89 59.18 434.12 63.02 438.43 66.77 C 439.57 68.01 441.20 66.90 442.46 66.50 C 452.98 62.54 462.77 54.69 466.84 43.99 C 466.01 37.95 464.28 32.04 462.85 26.11 M 520.35 36.46 C 514.19 45.77 509.02 55.82 505.80 66.53 C 499.23 88.45 496.24 111.25 494.02 133.96 C 492.71 144.95 492.94 156.05 491.49 167.02 C 493.73 166.25 494.97 164.11 496.51 162.45 C 503.64 154.19 508.91 144.57 514.24 135.10 C 524.66 116.44 533.19 96.37 536.16 75.07 C 537.27 67.80 536.71 60.44 536.85 53.12 C 536.99 46.30 535.60 39.26 531.71 33.56 C 530.61 31.86 528.58 31.23 526.94 30.22 C 524.25 31.71 521.97 33.84 520.35 36.46 M 471.32 47.26 C 473.07 53.76 474.46 60.34 476.20 66.84 C 478.72 68.93 483.76 70.34 485.48 66.62 C 487.56 60.85 490.04 55.24 492.40 49.58 C 485.39 51.67 477.88 50.12 471.32 47.26 M 441.97 69.90 C 447.29 75.19 453.12 79.95 458.79 84.86 C 465.94 82.00 470.75 75.14 472.51 67.84 C 471.74 61.39 469.70 55.13 468.21 48.82 C 462.72 58.99 452.92 66.45 441.97 69.90 M 426.01 60.10 C 427.12 66.00 428.84 71.83 428.77 77.89 C 429.54 90.54 425.43 103.01 418.76 113.64 C 423.41 113.16 428.44 113.56 432.83 112.04 C 441.96 100.41 441.68 84.13 437.40 70.65 C 433.90 66.84 429.65 63.79 426.01 60.10 M 477.14 71.62 C 478.17 75.47 478.93 79.38 479.97 83.23 C 481.42 79.74 482.33 76.07 483.67 72.55 C 481.47 72.38 479.29 72.06 477.14 71.62 M 469.98 80.96 C 467.82 83.85 464.59 85.58 461.76 87.71 C 466.81 91.64 471.33 96.19 476.09 100.48 C 476.84 96.31 478.57 92.10 477.51 87.82 C 476.48 83.16 475.29 78.53 474.20 73.88 C 472.78 76.23 471.61 78.74 469.98 80.96 M 441.44 73.97 C 444.90 86.59 444.20 100.77 437.33 112.15 C 444.80 111.45 452.31 111.18 459.78 110.38 C 461.17 104.69 460.82 98.63 458.89 93.11 C 458.07 90.79 457.57 88.15 455.61 86.47 C 450.97 82.21 446.25 78.03 441.44 73.97 M 462.08 92.07 C 463.93 97.90 464.21 104.08 463.17 110.09 C 466.91 109.77 470.67 109.49 474.42 109.28 C 474.78 107.71 475.30 106.15 475.42 104.53 C 471.30 100.05 466.30 96.47 462.08 92.07 M 466.76 113.43 C 469.24 115.46 471.17 118.02 472.58 120.90 C 472.99 118.09 473.46 115.30 473.97 112.51 C 471.54 112.64 469.14 112.97 466.76 113.43 M 441.08 115.37 C 451.22 120.71 460.46 129.43 462.73 141.09 C 465.28 138.71 466.48 135.30 468.60 132.58 C 471.16 129.34 470.21 124.74 468.76 121.22 C 467.29 117.42 463.50 115.59 460.25 113.59 C 453.91 114.73 447.42 114.21 441.08 115.37 M 419.57 116.81 C 421.74 119.51 424.42 121.73 426.69 124.35 C 437.83 136.55 444.31 152.60 445.64 169.01 C 450.50 161.36 455.36 153.69 460.04 145.93 C 459.13 131.11 446.13 120.36 432.98 115.81 C 428.51 116.05 424.06 116.67 419.57 116.81 M 315.21 125.23 C 311.18 128.54 307.35 132.41 305.27 137.27 C 302.07 144.75 300.31 152.90 300.61 161.05 C 300.89 175.41 304.10 190.39 313.23 201.85 C 320.63 210.86 331.97 217.78 344.00 216.36 C 348.83 205.90 352.09 194.78 354.25 183.49 C 356.68 170.72 355.29 157.38 350.98 145.16 C 347.95 137.54 343.88 129.73 336.73 125.24 C 330.45 120.85 321.58 121.22 315.21 125.23 M 470.74 135.37 C 462.50 147.98 454.80 160.93 446.67 173.60 C 445.67 175.30 444.47 176.98 444.14 178.96 C 442.63 188.59 440.43 198.23 436.39 207.14 C 443.10 205.63 448.77 201.39 453.80 196.89 C 459.55 190.72 464.54 183.90 469.34 176.99 C 469.22 167.65 469.49 158.32 469.84 148.99 C 470.05 150.30 470.26 151.61 470.47 152.92 C 469.96 146.98 470.16 140.94 471.45 135.10 C 471.28 135.17 470.92 135.31 470.74 135.37 M 407.80 144.81 C 401.60 151.32 400.09 160.78 400.33 169.43 C 401.98 169.39 403.63 169.36 405.29 169.33 C 403.94 171.86 401.53 174.08 401.18 177.00 C 402.13 184.16 404.57 191.25 409.11 196.96 C 414.35 203.51 422.38 208.30 430.99 207.84 C 431.29 207.52 431.89 206.88 432.19 206.56 C 435.02 198.35 438.87 190.02 438.59 181.17 C 441.03 172.56 438.78 163.38 435.92 155.14 C 433.50 149.44 429.97 143.53 424.06 140.92 C 418.58 138.25 411.72 140.43 407.80 144.81 M 537.24 155.27 C 532.33 158.72 528.90 163.80 525.98 168.95 C 521.40 177.03 517.17 185.38 513.98 194.11 C 522.29 189.84 529.48 183.65 535.57 176.60 C 539.30 172.28 542.64 167.44 544.37 161.95 C 545.29 159.39 544.52 156.28 542.17 154.77 C 540.71 153.48 538.69 154.55 537.24 155.27 M 399.35 196.02 C 398.75 204.52 400.78 213.03 403.48 221.05 C 405.17 224.94 407.57 230.26 412.48 230.37 C 421.11 227.44 424.82 218.37 429.96 211.65 C 422.75 211.98 415.76 209.07 409.88 205.10 C 405.94 202.57 403.39 198.42 399.35 196.02 M 299.54 200.04 C 299.18 201.63 298.57 203.22 298.69 204.88 C 299.91 216.06 301.84 227.32 306.27 237.73 C 307.87 241.14 309.95 244.56 313.15 246.67 C 317.93 249.15 323.10 245.87 326.42 242.47 C 332.83 236.69 337.10 229.09 341.48 221.77 C 329.86 221.64 318.33 217.08 309.83 209.14 C 306.37 206.14 303.67 202.23 299.54 200.04 M 219.58 224.46 C 213.68 228.59 207.90 233.86 206.11 241.12 C 204.51 246.64 205.36 254.25 210.89 257.27 C 215.44 255.31 219.21 251.91 221.62 247.58 C 226.77 238.48 229.51 228.25 231.57 218.07 C 227.35 219.75 223.29 221.84 219.58 224.46 M 585.14 322.17 C 580.22 334.08 577.07 347.14 578.55 360.07 C 579.90 368.42 584.51 377.33 592.94 380.30 C 598.78 383.13 605.93 380.86 610.30 376.43 C 616.96 369.19 619.53 359.33 621.28 349.91 C 626.05 321.44 627.47 292.51 627.59 263.69 C 610.56 280.81 594.68 299.75 585.14 322.17 M 682.54 453.52 C 682.35 456.67 684.63 458.76 687.57 459.24 C 691.25 456.45 691.29 451.20 688.18 447.97 C 687.33 447.97 685.64 447.98 684.79 447.98 C 683.55 449.62 682.81 451.48 682.54 453.52 M 696.03 449.04 C 694.49 452.60 693.62 458.59 698.67 459.85 C 693.16 458.16 696.77 455.45 698.30 453.58 C 700.76 455.25 703.91 458.80 697.75 460.74 C 702.88 459.15 704.26 451.86 700.25 448.64 C 699.15 447.08 697.34 448.77 696.03 449.04 Z" />
<path fill="#000000" opacity="1.00" d=" M 106.06 18.08 C 112.18 15.24 119.68 13.96 125.95 17.07 C 135.12 21.00 141.77 30.87 140.61 41.01 C 139.10 55.97 129.02 68.10 118.30 77.83 C 120.55 82.39 122.71 87.06 126.01 90.99 C 136.68 105.00 144.20 121.08 150.82 137.32 C 155.03 148.74 160.20 159.95 161.80 172.13 C 163.77 181.25 163.86 190.55 163.58 199.83 C 163.73 195.19 163.56 190.51 164.45 185.92 C 164.16 199.94 163.60 214.52 157.14 227.31 C 150.06 240.56 139.45 252.55 125.53 258.77 C 118.44 261.80 110.82 264.17 103.02 263.67 C 91.81 264.27 79.56 260.86 72.53 251.57 C 63.43 239.19 62.17 221.98 67.99 207.94 C 70.78 201.32 75.93 196.05 81.50 191.67 C 91.74 184.28 104.01 178.29 116.96 179.35 C 122.45 178.97 127.08 184.61 126.19 189.94 C 126.20 191.61 124.03 191.08 122.97 191.19 C 108.18 190.40 92.39 194.96 82.02 205.95 C 76.92 211.05 74.13 218.03 72.91 225.04 C 71.60 232.37 74.35 240.13 79.60 245.34 C 83.85 248.98 89.32 250.91 94.88 251.20 C 105.05 251.68 115.59 248.16 122.68 240.67 C 133.55 228.63 138.51 211.89 137.18 195.84 C 135.70 184.61 133.33 173.52 130.58 162.53 C 124.91 142.36 115.46 123.47 104.71 105.57 C 101.50 100.23 98.97 94.52 96.09 89.01 C 81.22 94.15 65.98 98.53 51.98 105.87 C 32.29 115.47 14.61 131.65 8.15 153.13 C 5.05 163.16 7.55 174.24 13.08 182.93 C 21.28 195.28 38.30 202.42 52.50 196.73 C 61.13 193.53 68.06 185.89 70.12 176.89 C 70.95 170.88 70.47 164.31 66.83 159.24 C 63.53 154.42 57.33 152.05 51.63 152.72 C 46.32 153.90 41.32 158.23 40.78 163.88 C 40.33 168.23 43.94 172.26 48.20 172.79 C 51.15 173.46 53.44 171.09 55.81 169.77 C 55.40 171.25 56.14 173.41 54.57 174.34 C 49.83 178.43 41.52 177.33 38.10 172.07 C 33.79 163.76 37.65 152.37 46.06 148.28 C 55.63 143.03 68.47 148.66 72.85 158.22 C 77.36 167.76 76.23 179.34 71.35 188.50 C 66.69 196.38 58.51 202.09 49.55 203.89 C 39.33 206.02 28.28 204.36 19.45 198.66 C 11.76 193.55 5.22 186.02 3.00 176.88 C 0.29 167.06 1.44 156.64 4.12 146.95 C 9.98 130.06 22.94 116.15 38.55 107.70 C 56.45 97.58 75.15 88.43 95.10 83.14 C 92.69 75.21 90.33 67.18 89.49 58.90 C 89.27 50.55 88.54 41.84 91.97 33.97 C 94.31 27.01 99.98 21.84 106.06 18.08 M 111.09 24.07 C 106.88 28.16 104.15 34.02 104.58 39.96 C 104.69 51.63 110.32 62.16 115.51 72.29 C 125.80 64.03 134.39 51.83 133.53 38.08 C 133.69 31.89 130.41 26.15 125.43 22.62 C 120.78 21.09 115.13 20.94 111.09 24.07 Z" />
<path fill="#000000" opacity="1.00" d=" M 683.83 456.63 C 684.09 455.21 684.93 454.06 685.78 452.95 C 687.02 453.73 688.29 454.56 688.76 456.06 C 688.22 456.70 687.13 457.96 686.58 458.60 C 685.65 457.94 684.74 457.28 683.83 456.63 Z" />
</g>
<g id="#f2f1f1ff">
<path fill="#f2f1f1" opacity="1.00" d=" M 682.54 453.52 C 682.81 451.48 683.55 449.62 684.79 447.98 C 685.64 447.98 687.33 447.97 688.18 447.97 C 691.29 451.20 691.25 456.45 687.57 459.24 C 684.63 458.76 682.35 456.67 682.54 453.52 M 683.83 456.63 C 684.74 457.28 685.65 457.94 686.58 458.60 C 687.13 457.96 688.22 456.70 688.76 456.06 C 688.29 454.56 687.02 453.73 685.78 452.95 C 684.93 454.06 684.09 455.21 683.83 456.63 Z" />
<path fill="#f2f1f1" opacity="1.00" d=" M 696.03 449.04 C 697.34 448.77 699.15 447.08 700.25 448.64 C 704.26 451.86 702.88 459.15 697.75 460.74 C 703.91 458.80 700.76 455.25 698.30 453.58 C 696.77 455.45 693.16 458.16 698.67 459.85 C 693.62 458.59 694.49 452.60 696.03 449.04 Z" />
</g>
</svg>
